PathFileType	4	(X/Y/Z)	Patient4_TMGait_0pt6_02_right_34.trc.trc
DataRate	CameraRate	NumFrames	NumMarkers	Units	OrigDataRate	OrigDataStartFrame	OrigNumFrames
81.871345029240	81.871345029240	4	33	mm	81.871345029240	53	       141
Frame#	Time	Sacral			L.Shoulder			Chest			R.Shoulder			Neck			R.ASIS			L.ASIS			R.Thigh.Superior			R.Thigh.Lateral			R.Thigh.Inferior			R.Patella			L.Thigh.Superior			L.Thigh.Lateral			L.Thigh.Inferior			L.Patella			L.Shank.Superior			L.Shank.Lateral			L.Shank.Inferior			R.Shank.Superior			R.Shank.Lateral			R.Shank.Inferior			R.Heel			R.Midfoot.Superior			R.Midfoot.Lateral			R.Toe			L.Heel			L.Midfoot.Lateral			L.Midfoot.Superior			L.Toe			L.Elbow			L.Wrist			R.Elbow			R.Wrist			
		X1	Y1	Z1	X2	Y2	Z2	X3	Y3	Z3	X4	Y4	Z4	X5	Y5	Z5	X6	Y6	Z6	X7	Y7	Z7	X8	Y8	Z8	X9	Y9	Z9	X10	Y10	Z10	X11	Y11	Z11	X12	Y12	Z12	X13	Y13	Z13	X14	Y14	Z14	X15	Y15	Z15	X16	Y16	Z16	X17	Y17	Z17	X18	Y18	Z18	X19	Y19	Z19	X20	Y20	Z20	X21	Y21	Z21	X22	Y22	Z22	X23	Y23	Z23	X24	Y24	Z24	X25	Y25	Z25	X26	Y26	Z26	X27	Y27	Z27	X28	Y28	Z28	X29	Y29	Z29	X30	Y30	Z30	X31	Y31	Z31	X32	Y32	Z32	X33	Y33	Z33	

53	41.535142857143	795.657975764749	1020.362835899519	515.110435009157	976.404654792604	1437.897885195834	315.191748111423	1094.832826965160	1359.864253047998	460.222335053070	1041.298825846828	1440.234267945713	642.150983180066	996.836756363628	1497.005333435909	465.219538809735	1029.233740752553	941.012961399422	607.407333618649	988.233662685253	965.738084281306	336.466557301535	1050.933137514183	736.309525243188	577.986958350235	961.144307379975	634.630748510096	638.621397643659	1029.356598369194	577.447449148285	554.832185902522	1022.446606033157	492.556658461564	558.530906199304	1078.271967589746	798.257035620973	365.407328937635	1042.116590680860	671.059744476084	284.426772644255	1151.519243229629	614.879125380209	341.030388473634	1172.525852510147	527.905993160890	330.966009590822	1116.465193342887	454.442626913844	324.415313459114	983.335363232437	387.642236506423	281.828899205296	999.417062141454	257.254417885031	332.389310376663	994.542350776035	405.777473697587	564.485927400466	922.752905733419	301.109014736382	622.673803606496	964.396817244874	207.574548651965	556.469505149225	830.587282492598	43.295246209570	519.532260595584	1000.965519939075	96.596502809189	559.565226480775	912.135643034358	36.932802427396	596.103104334325	1120.832398230202	41.638449997130	590.112480843343	828.296327869869	156.634955443230	378.317746357190	887.338825206222	126.066997235544	292.494625944121	990.207869896177	151.633750732196	308.456090129491	1083.941314467809	56.826422730217	269.682129390167	932.680252526475	1080.573126057332	214.841313544511	1014.341258744723	832.273736694230	204.301844488041	1074.005107816424	1100.891501536469	782.866256922117	1252.887785640525	919.333015068110	727.743852322449	
54	41.547357142857	794.628816784098	1020.908296180242	516.206687667531	976.278283910598	1437.448370069905	315.701312627325	1095.001292043762	1359.229447052145	460.358890556997	1042.689146158115	1440.210494196859	642.363646077070	997.377193316502	1496.781171806904	465.563241009319	1027.943379263305	940.689000785098	608.091189633058	986.215923026512	965.592296222769	337.192207650706	1047.396813724585	735.653922309668	578.231429674075	956.824565633135	634.656944404038	639.235532718458	1024.274419496067	576.829746713982	555.454151530347	1016.583510358627	492.261496950798	559.212231997265	1077.100980310412	800.248696576978	365.921897256674	1042.460090162609	672.724964952214	284.543538682258	1152.248517566342	617.837582420487	341.236792935815	1175.079375254364	532.436230347238	330.933697929067	1122.953418302313	457.617600147779	323.962017363380	994.536673885583	382.704269343561	281.094989225080	1019.405954416487	253.198715921496	330.888637139706	988.397424151409	405.686828494530	564.973943953984	916.186321468177	301.221029802874	623.069411590302	957.558757340280	207.574108199356	556.754201750375	823.254111016657	43.435180124674	519.603947105711	993.659534626793	96.552960492428	559.686171569480	904.792758850035	36.944464740672	596.117312222017	1113.470234009527	41.421923885733	590.185060675361	855.751480138095	140.762458516853	376.604433829065	916.489973383544	115.034482528493	290.459863178773	1017.339750905475	147.541317400733	306.409174357335	1117.335088650901	59.896364073462	266.868247699728	926.209464458028	1080.248747434816	217.355474548140	992.745193074465	827.660068470255	207.728441078231	1085.175741504038	1102.164032141571	782.301274602270	1273.185622883712	932.054299655037	722.823181807409	
55	41.559571428571	793.737037541087	1021.360158160286	517.069184711050	976.292158741530	1436.966566270875	316.107522638965	1095.226009034000	1358.541587315578	460.450281495561	1043.971049795171	1440.077958541720	642.496215296378	997.925230420759	1496.488567319652	465.853376314444	1026.707547704738	940.350638773317	608.677607966719	984.626753768109	965.395018351461	337.723047648962	1043.904605496787	734.989129135761	578.463983872809	952.521203229361	634.675398291018	639.808728960908	1019.248475696786	576.203880287098	556.081245878920	1010.779345654029	491.949528126878	559.918456656307	1075.604635180439	801.473321010009	366.348226150998	1042.102994739268	673.730241292066	284.585237424765	1151.978622736002	619.785950293200	341.596542401993	1176.464320803343	536.213808067515	331.087157773697	1128.481524092081	460.377523620629	323.632757568120	1005.653625927526	377.347001503311	280.168278438707	1039.445794025250	249.374229347706	329.371954051352	982.288470937552	405.595093200405	565.467696827237	909.613122869296	301.336723526547	623.452929910364	950.727093313062	207.572711688269	557.049766577198	815.924293448527	43.588669157779	519.673094788913	986.359821477140	96.513685498618	559.800480033104	897.446416755107	36.958569841526	596.122598594031	1106.104018956396	41.207179258446	590.266333020067	884.270724459239	125.310948774412	374.519718365601	946.646576373317	104.604986168333	288.267447726028	1044.861667939229	144.077091662676	304.450923420075	1150.845294713595	64.136058223864	264.561501041158	919.351479947207	1080.150344040602	219.550784577039	971.679280809727	824.448425189032	211.224018999068	1095.909391241864	1103.561759107195	781.347466134787	1292.440293052517	945.623436032325	717.508320243124	
56	41.571785714286	792.981780698352	1021.708857260685	517.690827514001	976.431882600890	1436.466252327238	316.411801050269	1095.495759855385	1357.806148819557	460.491332844397	1045.124916305906	1439.825946935681	642.553706399173	998.472792409617	1496.129993866884	466.093313702496	1025.545858734992	940.011188201194	609.152514231283	983.430544356101	965.097865818279	338.076683360771	1040.494910605004	734.316877127490	578.712884953807	948.253531186045	634.684630370408	640.344969527671	1014.298141697780	575.572268818343	556.719753932013	1005.049763995649	491.616357953317	560.639813347034	1073.825509189275	801.908426762555	366.709482323806	1041.103632682320	674.063699870407	284.536558642707	1150.783430485731	620.706715910758	342.108554942831	1176.765734075484	539.210029276410	331.447870122507	1133.073858795168	462.720244230667	323.464517971056	1016.670047220626	371.762911388906	279.060532696452	1059.300587113891	246.000294606907	327.925159575045	976.226219763834	405.497758026305	565.961946575233	903.045816615540	301.455093432704	623.824426399100	943.906872207471	207.569916100010	557.350879156130	808.593948710601	43.752978899901	519.739263841607	979.066517287895	96.479472690152	559.908735303692	890.095562206896	36.975090248849	596.120916250898	1098.734794628714	41.000234978204	590.355479916572	913.474182962668	110.758665003881	372.127647617170	977.447723912835	95.159215562565	286.020948995020	1072.418195537808	141.493441152789	302.700858812059	1184.008180711679	69.694572181246	262.975305528895	912.146749256632	1080.327384768072	221.412817261261	951.355465429961	822.511860273554	214.777068222004	1106.189404064221	1105.036566332803	780.001331499907	1310.550304779359	959.900478657160	711.862816261773	
